<?xml version="1.0" encoding="UTF-8" standalone="no"?>
<!-- Created with Inkscape (http://www.inkscape.org/) -->

<svg
   width="1744.8698"
   height="357.17935"
   viewBox="0 0 1744.8698 357.17935"
   version="1.1"
   id="svg1"
   xmlns="http://www.w3.org/2000/svg"
   xmlns:svg="http://www.w3.org/2000/svg">
  <defs
     id="defs1" />
  <g
     id="layer1"
     transform="matrix(2.4603305,0,0,2.4603305,-1126.876,-895.66586)">
    <g
       id="g6"
       style="display:none">
      <path
         style="opacity:1;fill:#313131;stroke:#ffffff;stroke-width:0.6;stroke-dasharray:none;stroke-opacity:1"
         d="m 476.07829,476.18729 39.68314,-0.0162"
         id="path5" />
      <path
         style="fill:#313131;stroke:#ffffff;stroke-width:0.6;stroke-dasharray:none;stroke-opacity:1"
         d="m 475.10326,473.06512 39.68314,-0.0162"
         id="path5-2" />
      <path
         style="fill:#313131;stroke:#ffffff;stroke-width:0.6;stroke-dasharray:none;stroke-opacity:1"
         d="m 475.36709,469.86091 39.68314,-0.0162"
         id="path5-2-7" />
      <path
         style="fill:#313131;stroke:#ffffff;stroke-width:0.6;stroke-dasharray:none;stroke-opacity:1"
         d="m 476.3957,466.85507 39.68314,-0.0162"
         id="path5-2-7-2" />
      <path
         style="fill:#313131;stroke:#ffffff;stroke-width:0.6;stroke-dasharray:none;stroke-opacity:1"
         d="m 477.20439,463.66376 39.68314,-0.0162"
         id="path5-2-7-2-3" />
      <path
         style="fill:#313131;stroke:#ffffff;stroke-width:0.6;stroke-dasharray:none;stroke-opacity:1"
         d="m 476.74783,460.77199 39.68314,-0.0162"
         id="path5-2-7-2-3-9" />
      <path
         style="fill:#313131;stroke:#ffffff;stroke-width:0.6;stroke-dasharray:none;stroke-opacity:1"
         d="m 479.25657,458.01796 31.13518,-0.0127"
         id="path5-2-7-2-3-9-4" />
      <path
         style="fill:#313131;stroke:#ffffff;stroke-width:0.6;stroke-dasharray:none;stroke-opacity:1"
         d="m 481.08737,455.42377 31.13518,-0.0127"
         id="path5-2-7-2-3-9-4-1" />
      <path
         style="fill:#313131;stroke:#ffffff;stroke-width:0.6;stroke-dasharray:none;stroke-opacity:1"
         d="m 480.44294,453.01561 31.13518,-0.0127"
         id="path5-2-7-2-3-9-4-1-2" />
      <path
         style="fill:#313131;stroke:#ffffff;stroke-width:0.6;stroke-dasharray:none;stroke-opacity:1"
         d="m 483.85727,450.52057 14.22242,-0.007 2.9093,-0.001 7.45338,-0.004"
         id="path5-2-7-2-3-9-4-1-2-5" />
      <path
         style="fill:#313131;stroke:#ffffff;stroke-width:0.6;stroke-dasharray:none;stroke-opacity:1"
         d="m 482.77416,448.02618 14.22242,-0.007 2.9093,-0.001 7.45338,-0.004"
         id="path5-2-7-2-3-9-4-1-2-5-2" />
      <path
         style="fill:#313131;stroke:#ffffff;stroke-width:0.6;stroke-dasharray:none;stroke-opacity:1"
         d="m 486.31879,445.42178 10.47956,-0.007 2.14367,-0.001 5.49191,-0.004"
         id="path5-2-7-2-3-9-4-1-2-5-2-4" />
      <path
         style="fill:#313131;stroke:#ffffff;stroke-width:0.6;stroke-dasharray:none;stroke-opacity:1"
         d="m 486.70672,442.93075 10.47956,-0.007 2.14367,-10e-4 5.49191,-0.004"
         id="path5-2-7-2-3-9-4-1-2-5-2-4-7" />
      <path
         style="fill:#313131;stroke:#ffffff;stroke-width:0.6;stroke-dasharray:none;stroke-opacity:1"
         d="m 486.60993,440.43495 10.47956,-0.007 2.14367,-0.001 5.49191,-0.004"
         id="path5-2-7-2-3-9-4-1-2-5-2-4-7-8" />
      <path
         style="fill:#313131;stroke:#ffffff;stroke-width:0.6;stroke-dasharray:none;stroke-opacity:1"
         d="m 487.84011,438.13121 10.47956,-0.007 2.14367,-0.001 5.49191,-0.004"
         id="path5-2-7-2-3-9-4-1-2-5-2-4-7-8-4" />
      <path
         style="fill:#313131;stroke:#ffffff;stroke-width:0.6;stroke-dasharray:none;stroke-opacity:1"
         d="m 487.14804,435.99745 10.47956,-0.007 2.14367,-0.001 5.49191,-0.004"
         id="path5-2-7-2-3-9-4-1-2-5-2-4-7-8-4-6" />
    </g>
    <g
       id="g7"
       style="display:none;opacity:1">
      <path
         style="opacity:1;fill:#313131;stroke:#dddddd;stroke-width:0.6;stroke-dasharray:none;stroke-opacity:1"
         d="m 496.01008,430.23298 -0.41715,51.35363"
         id="path7" />
      <path
         style="fill:#313131;stroke:#dddddd;stroke-width:0.6;stroke-dasharray:none;stroke-opacity:1"
         d="m 498.8708,432.26088 -0.41715,51.35363"
         id="path7-6" />
      <path
         style="fill:#313131;stroke:#dddddd;stroke-width:0.6;stroke-dasharray:none;stroke-opacity:1"
         d="m 501.91523,429.93464 -0.41715,51.35363"
         id="path7-6-5" />
      <path
         style="fill:#313131;stroke:#dddddd;stroke-width:0.52287;stroke-dasharray:none;stroke-opacity:1"
         d="m 505.087,446.00676 -0.42017,38.71972"
         id="path7-6-5-71" />
      <path
         style="fill:#313131;stroke:#dddddd;stroke-width:0.437795;stroke-dasharray:none;stroke-opacity:1"
         d="m 507.90506,454.9442 -0.36625,31.14081"
         id="path7-6-5-71-7" />
      <path
         style="fill:#313131;stroke:#dddddd;stroke-width:0.372968;stroke-dasharray:none;stroke-opacity:1"
         d="m 510.96294,461.97001 -0.36987,22.37947"
         id="path7-6-5-71-7-3" />
      <path
         style="fill:#313131;stroke:#dddddd;stroke-width:0.6;stroke-dasharray:none;stroke-opacity:1"
         d="M 493.06395,430.26047 492.6468,481.6141"
         id="path7-6-5-7" />
      <path
         style="fill:#313131;stroke:#dddddd;stroke-width:0.6;stroke-dasharray:none;stroke-opacity:1"
         d="m 489.84482,431.0274 -0.41715,51.35363"
         id="path7-6-5-7-7" />
      <path
         style="fill:#313131;stroke:#dddddd;stroke-width:0.520286;stroke-dasharray:none;stroke-opacity:1"
         d="m 486.63804,445.89125 -0.42027,38.32884"
         id="path7-6-5-7-7-1" />
      <path
         style="fill:#313131;stroke:#dddddd;stroke-width:0.529194;stroke-dasharray:none;stroke-opacity:1"
         d="m 483.46971,444.99653 -0.41991,39.68534"
         id="path7-6-5-7-7-1-5" />
      <path
         style="fill:#313131;stroke:#dddddd;stroke-width:0.457726;stroke-dasharray:none;stroke-opacity:1"
         d="m 480.46112,455.13485 -0.42337,29.44807"
         id="path7-6-5-7-7-1-5-0" />
    </g>
    <text
       xml:space="preserve"
       style="font-size:87.0038px;font-family:sans-serif;-inkscape-font-specification:'sans-serif, ';white-space:pre;inline-size:625.02;display:inline;opacity:1;fill:#ffffff;fill-opacity:1"
       x="455.54877"
       y="483.20731"
       id="text1"
       transform="matrix(1.3147752,0,0,1.3147752,-143.39549,-127.23462)"><tspan
         x="455.54877"
         y="483.20731"
         id="tspan6"><tspan
           style="font-size:101.412px;font-family:Comfortaa;-inkscape-font-specification:'Comfortaa, Normal'"
           id="tspan2">A</tspan><tspan
           style="font-family:Comfortaa;-inkscape-font-specification:Comfortaa"
           id="tspan5">tılım Orme</tspan></tspan></text>
    <g
       id="g3"
       transform="translate(13.476977,-0.34110908)"
       style="stroke-width:0.999866;stroke-dasharray:none">
      <ellipse
         style="display:inline;opacity:1;fill:#ffffff;fill-opacity:1;stroke:none;stroke-width:0.999866;stroke-dasharray:none;stroke-opacity:1"
         id="path4"
         cx="874.89478"
         cy="463.58386"
         rx="16.252012"
         ry="15.892694" />
      <path
         style="opacity:1;fill:#ffffff;fill-opacity:1;fill-rule:nonzero;stroke:none;stroke-width:0.999866;stroke-dasharray:none;stroke-opacity:1"
         d="m 832.13262,447.07622 c 0.31831,0.0402 1.38116,-0.20943 2.69799,-2.50039 0.23658,-0.41159 0.47612,-0.85466 0.79618,-1.43496 1.07715,-1.95299 3.30894,-6.00671 7.87185,-10.54241 4.03317,-4.00912 10.08709,-8.62233 19.27201,-12.84391 9.52414,-4.37748 21.57327,-7.94477 36.49125,-10.22512 15.20104,-2.32362 28.17709,-6.06245 39.15532,-10.8756 10.59315,-4.64432 18.40828,-9.88995 24.05509,-14.67981 6.4991,-5.51282 10.14407,-10.43007 11.84655,-13.25708 0.46422,-0.77085 0.82222,-1.44708 1.09055,-2.0253 1.64973,-3.55493 0.5005,-4.52165 0.28266,-4.60932 v 0 c -0.39816,-0.16025 -1.36466,-0.14353 -3.56468,2.59666 -0.37617,0.46852 -0.78099,0.99605 -1.29725,1.66454 -1.76465,2.28502 -5.36422,6.98913 -11.33217,12.15998 -5.27114,4.56711 -12.62497,9.72922 -22.77724,14.35293 -10.52158,4.7919 -23.13925,8.5894 -38.04055,10.8672 -15.18406,2.32102 -27.60356,5.82376 -37.61632,10.23814 -9.66685,4.26188 -16.2691,9.01533 -20.766,13.37384 -5.17701,5.01768 -7.54646,9.49095 -8.51259,12.05968 -0.2626,0.69821 -0.44278,1.30875 -0.55888,1.827 -0.72237,3.22441 0.69289,3.827 0.90623,3.85393 z"
         id="path12"
         transform="translate(2.6634367,0.35640589)" />
      <path
         style="opacity:1;fill:#ffffff;fill-opacity:1;fill-rule:nonzero;stroke:none;stroke-width:0.999866;stroke-dasharray:none;stroke-opacity:1"
         d="m 850.92956,426.78421 c 0.15485,0.16369 0.68696,0.57302 2.35264,-0.37049 1.40492,-0.7958 4.10307,-2.87773 10.81983,-6.58615 6.63633,-3.66402 17.62754,-8.98181 34.09072,-14.02689 8.75468,-2.68191 15.29019,-6.11214 20.18479,-9.68499 5.19344,-3.79099 8.49803,-7.71275 10.63914,-10.98881 2.20244,-3.3699 3.44778,-6.5239 4.12347,-9.04163 0.61402,-2.28796 0.67792,-3.79982 0.68035,-3.87875 a 1.225,1.225 54.231045 0 0 -2.39776,-0.38967 c -0.0647,0.21561 -0.12857,0.42857 -0.16039,0.53465 -0.0192,0.064 -0.0334,0.11139 -0.0401,0.13366 a 1.2250023,1.2250023 90 0 0 2.34668,0.704 c 0.007,-0.0223 0.0209,-0.0697 0.0401,-0.13367 0.0318,-0.10608 0.0957,-0.31904 0.16039,-0.53464 l -2.39776,-0.38967 c 0.002,-0.0789 -0.0407,1.24328 -0.59778,3.31904 -0.61362,2.28648 -1.75779,5.19929 -3.80804,8.33632 -1.99114,3.04659 -5.12689,6.70694 -10.09143,10.24616 -4.68003,3.33639 -10.98171,6.56336 -19.49053,9.08386 -16.70631,4.95057 -27.96263,10.21507 -34.78537,13.9912 -6.70278,3.70974 -9.83462,6.3414 -10.82809,7.37803 -1.43423,1.49653 -0.98117,2.15012 -0.84086,2.29844 z"
         id="path13"
         transform="rotate(1.58756,804.51018,279.04477)" />
      <circle
         style="opacity:1;fill:#ffffff;fill-opacity:1;stroke:none;stroke-width:0.999866;stroke-dasharray:none;stroke-opacity:1"
         id="path29-5"
         cx="828.10565"
         cy="424.30582"
         r="5.5603814" />
      <circle
         style="opacity:1;fill:#ffffff;fill-opacity:1;stroke:none;stroke-width:0.999866;stroke-dasharray:none;stroke-opacity:1"
         id="path29-5-6"
         cx="844.86139"
         cy="409.78116"
         r="5.5603814" />
    </g>
    <path
       style="display:inline;opacity:1;fill:#313131;stroke:#ffffff;stroke-width:0.6;stroke-dasharray:none;stroke-opacity:1"
       d="M 527.40465,445.46434 Z"
       id="path6" />
    <circle
       style="fill:#ffffff;stroke:#ffffff;stroke-width:0.999866"
       id="path1"
       cx="887.94391"
       cy="463.25854"
       r="10.575624" />
  </g>
</svg>
