<?xml version="1.0" encoding="UTF-8" standalone="no"?>
<!-- Created with Inkscape (http://www.inkscape.org/) -->

<svg
   width="256.65302"
   height="256.73755"
   viewBox="0 0 256.65302 256.73755"
   version="1.1"
   id="svg1"
   xmlns="http://www.w3.org/2000/svg"
   xmlns:svg="http://www.w3.org/2000/svg">
  <defs
     id="defs1" />
  <g
     id="layer1"
     transform="translate(-851.20343,-317.42828)">
    <path
       d="m 1092.2969,545.31445 c -10.0537,10.08171 -22.7942,17.06011 -36.7031,20.10352 l 2.4559,4.94989 a 1.6124566,1.6124566 31.806019 0 0 1.4444,0.89581 h 44.875 a 0.61596012,0.61596012 121.63141 0 0 0.5501,-0.89308 z"
       style="font-size:314.594px;font-family:Anurati;-inkscape-font-specification:Anurati;fill:#fdfdfd;stroke:#ffffff;stroke-width:5.80428"
       id="path16" />
    <path
       d="M 979.08403,320.48427 854.14058,570.36924 a 0.61803185,0.61803185 58.282614 0 0 0.55278,0.89443 h 44.56055 a 1.6288828,1.6288828 148.4535 0 0 1.45254,-0.89174 l 20.48749,-40.37082 a 335.12625,335.12625 116.73603 0 0 0.89975,-1.78617 l 19.86926,-39.73848 a 1184.0488,1184.0488 116.61345 0 1 0.89593,-1.7881 l 36.22365,-72.14235 a 0.4999954,0.4999954 0.09700133 0 1 0.89442,0.002 l 11.25742,22.61068 c 10.85283,-9.37599 24.18893,-15.40806 38.39653,-17.36718 l -49.65244,-99.30675 a 0.49999725,0.49999725 3.0378722e-4 0 0 -0.89443,0 z"
       style="font-size:314.594px;font-family:Anurati;-inkscape-font-specification:Anurati;fill:#fdfdfd;stroke:#ffffff;stroke-width:5.80428"
       id="path15" />
    <path
       d="m 1039.2496,432.66563 a 60.596317,60.596317 0 0 0 -60.59563,60.59766 60.596317,60.596317 0 0 0 60.59563,60.5957 60.596317,60.596317 0 0 0 60.5977,-60.5957 60.596317,60.596317 0 0 0 -60.5977,-60.59766 z m 1.5957,36.01368 a 23.881311,23.881311 0 0 1 23.8809,23.88086 23.881311,23.881311 0 0 1 -23.8809,23.88086 23.881311,23.881311 0 0 1 -23.8808,-23.88086 23.881311,23.881311 0 0 1 23.8808,-23.88086 z"
       style="opacity:1;fill:#ff0000;stroke:#ffffff;stroke-width:7.7"
       id="path5" />
  </g>
</svg>
